<?xml version="1.0" encoding="UTF-8" standalone="no"?>
<svg
   xmlns:dc="http://purl.org/dc/elements/1.1/"
   xmlns:cc="http://creativecommons.org/ns#"
   xmlns:rdf="http://www.w3.org/1999/02/22-rdf-syntax-ns#"
   xmlns:svg="http://www.w3.org/2000/svg"
   xmlns="http://www.w3.org/2000/svg"
   xmlns:sodipodi="http://sodipodi.sourceforge.net/DTD/sodipodi-0.dtd"
   xmlns:inkscape="http://www.inkscape.org/namespaces/inkscape"
   height="400"
   width="400"
   version="1.1"
   viewBox="0 0 399.99998 399.99998"
   id="svg2"
   inkscape:version="0.92.2 5c3e80d, 2017-08-06"
   sodipodi:docname="logo.svg"
   inkscape:export-filename="/home/lip/code/flowinspace/flowinspace/static/images/logo_tiny.png"
   inkscape:export-xdpi="9.6000004"
   inkscape:export-ydpi="9.6000004">
  <metadata
     id="metadata12">
    <rdf:RDF>
      <cc:Work
         rdf:about="">
        <dc:format>image/svg+xml</dc:format>
        <dc:type
           rdf:resource="http://purl.org/dc/dcmitype/StillImage" />
        <dc:title />
      </cc:Work>
    </rdf:RDF>
  </metadata>
  <defs
     id="defs10" />
  <sodipodi:namedview
     pagecolor="#ffffff"
     bordercolor="#666666"
     borderopacity="1"
     objecttolerance="10"
     gridtolerance="10"
     guidetolerance="10"
     inkscape:pageopacity="0"
     inkscape:pageshadow="2"
     inkscape:window-width="1366"
     inkscape:window-height="708"
     id="namedview8"
     showgrid="false"
     inkscape:zoom="2.6775882"
     inkscape:cx="169.72584"
     inkscape:cy="177.98024"
     inkscape:window-x="0"
     inkscape:window-y="0"
     inkscape:window-maximized="1"
     inkscape:current-layer="layer1"
     inkscape:pagecheckerboard="false">
    <sodipodi:guide
       position="0,0"
       orientation="0,400"
       id="guide4140"
       inkscape:locked="false" />
    <sodipodi:guide
       position="399.99998,0"
       orientation="-400,0"
       id="guide4142"
       inkscape:locked="false" />
    <sodipodi:guide
       position="399.99998,399.99998"
       orientation="0,-400"
       id="guide4144"
       inkscape:locked="false" />
    <sodipodi:guide
       position="0,399.99998"
       orientation="400,0"
       id="guide4146"
       inkscape:locked="false" />
  </sodipodi:namedview>
  <g
     inkscape:groupmode="layer"
     id="layer2"
     inkscape:label="Layer 2" />
  <g
     inkscape:groupmode="layer"
     id="layer1"
     inkscape:label="Layer 1">
    <path
       style="opacity:1;fill:#1a1a1a;fill-opacity:1;fill-rule:nonzero;stroke:none;stroke-width:3.69689965;stroke-linecap:round;stroke-linejoin:round;stroke-miterlimit:4;stroke-dasharray:none;stroke-dashoffset:0;stroke-opacity:0.14682539"
       d="m 191.34086,40.528854 c -25.00315,0.639214 -50.4049,7.24551 -71.28807,21.300488 -0.58024,4.103051 5.64344,2.927505 7.53817,1.222078 17.92408,-8.024164 36.55006,-15.358887 56.42646,-16.154085 24.43302,-1.966406 49.17991,3.454821 71.14003,13.930166 3.53699,-0.412557 7.67382,5.736177 10.25315,1.866504 0.3103,-5.957237 -8.09547,-6.092216 -11.8109,-8.790972 -19.22258,-9.260385 -40.94566,-13.619277 -62.25884,-13.374179 z m -28.6275,29.336915 -0.004,0.002 c -27.80737,0.09536 -55.09078,3.00079 -79.656363,17.71898 C 38.637701,115.1629 37.466796,185.55837 74.825229,219.35199 82.475797,218.92607 90.668241,205.44634 80.850743,202.91627 56.501344,178.24134 57.485823,134.50394 79.377852,108.70128 96.868339,90.11361 124.06632,86.7641 148.23799,85.566758 V 198.63449 c -6.81399,3.5322 -28.60312,-6.66542 -27.70142,4.08139 1.62837,15.63169 23.41263,2.65742 27.70142,10.44807 -1.89405,24.49993 3.85222,50.20152 -3.09936,74.04987 -0.73164,6.38814 -12.77453,3.53117 -4.94602,11.12142 8.84284,8.56744 19.9104,4.26061 20.29861,-6.78728 4.81499,-27.28008 1.10951,-55.26298 2.27446,-82.81924 11.31241,-0.73117 27.97918,3.00127 40.12798,1.1625 -0.30625,1.33255 -0.59167,2.6679 -0.83399,4.00558 -5.10872,30.16795 17.42518,55.42233 42.11905,68.95584 17.76812,10.56006 40.50217,27.24292 34.73062,51.08511 -4.30959,22.25377 -36.06705,26.58898 -49.55069,10.55998 -7.52542,5.4184 -8.47144,16.13004 1.18414,19.1542 26.68979,13.96276 65.42808,-3.57936 65.2517,-35.91475 1.68861,-34.20036 -34.52901,-47.68371 -56.58166,-65.93045 -20.84817,-14.21458 -27.75036,-43.55096 -15.00789,-65.37629 13.2694,-23.69095 39.70911,-44.66004 68.06231,-41.78686 18.72587,3.10011 19.5552,27.89955 10.93545,40.92942 -9.7533,17.08766 -27.26864,34.42807 -47.96039,33.99954 4.18375,15.8779 23.11058,10.5606 32.31002,2.72211 23.892,-15.47461 46.97833,-48.26274 28.4794,-76.26297 -8.22331,-11.84971 -23.49179,-15.47625 -37.25781,-16.23353 0.22049,-12.36676 1.20817,-24.89873 -1.23829,-36.86967 -1.68629,-2.29004 -4.63525,-3.432555 -7.44611,-3.321447 a 0.21596183,0.21596183 0 0 1 -0.004,0 c -2.38983,0.05599 -3.70277,1.491967 -4.32509,3.408087 -0.62205,1.91608 -0.50064,4.30533 0.0885,6.10677 a 0.21596183,0.21596183 0 0 1 0.0147,0.0595 c 0.26029,10.74341 -0.0441,21.48354 -0.18587,32.21792 -26.78092,6.88541 -48.41758,29.29201 -58.6071,55.09423 -0.44137,-0.0205 -0.87162,-0.0472 -1.35742,-0.0394 -12.70077,0.22438 -45.95355,9.11869 -42.68944,-10.02023 V 83.644297 c 23.04431,-0.784085 63.77468,2.873668 86.4457,-0.162462 4.20854,-2.728076 6.08811,-9.195069 4.61028,-13.588988 -22.39568,1.901356 -62.67564,0.183662 -85.79763,-0.01082 v -0.002 c -1.85791,-0.0159 -3.71501,-0.02085 -5.56882,-0.01446 z m 109.22637,0.521681 c -2.01873,0.08711 -3.67579,0.918385 -4.95143,2.193226 -1.45783,1.456994 -2.40656,3.499629 -2.76548,5.655461 -0.35893,2.155846 -0.12717,4.421319 0.75813,6.319752 0.88537,1.89846 2.41294,3.43104 4.67714,4.157207 a 0.21596183,0.21596183 0 0 1 0.0271,0.0089 c 8.3704,3.952513 16.83054,-7.795939 11.07264,-14.751495 a 0.21596183,0.21596183 0 0 1 -0.006,-0.0069 c -1.80731,-2.41121 -4.91584,-3.67785 -7.9028,-3.565125 a 0.21596183,0.21596183 0 0 1 -0.0236,-0.002 c -0.30325,-0.01895 -0.59783,-0.02084 -0.88629,-0.0069 z m 20.84922,10.729669 -0.27614,0.07582 c -4.62157,2.919632 0.66303,9.171825 3.68962,11.365078 31.68956,34.517673 42.89248,86.142063 28.80085,130.801263 -6.84461,23.30665 -20.3041,44.47675 -37.91492,61.07106 -0.85823,4.12337 5.73739,4.64445 7.15911,1.16792 40.4194,-38.72437 53.66107,-101.96759 32.99418,-154.03686 -7.93812,-18.77025 -18.6599,-37.472679 -34.4527,-50.444283 z M 56.544801,212.90217 c -4.607238,3.41357 0.705645,9.87556 1.213049,14.19558 17.590022,59.35241 78.9675,102.83062 141.12478,99.46247 21.7592,-0.93312 44.49192,-5.89753 62.79856,-18.21198 0.62307,-4.19205 -5.87079,-4.45377 -8.02199,-1.8809 -46.94089,24.66006 -108.26172,16.3614 -148.11961,-18.23724 -21.86353,-18.30833 -37.579594,-43.61322 -44.826753,-71.11831 -0.800171,-1.80004 -2.175723,-3.73777 -4.168036,-4.20962 z"
       id="monogram"
       inkscape:connector-curvature="0" />
  </g>
</svg>
